<svg width="39" height="32" viewBox="0 0 39 32" fill="none" xmlns="http://www.w3.org/2000/svg">
<path d="M16.0483 8.86693V7.13359M16.0483 16.6669V14.9336M16.0483 24.4669V22.7336M7.72831 1.93359H31.3016C33.2432 1.93359 34.2139 1.93359 34.9555 2.31144C35.6078 2.6438 36.1381 3.17413 36.4705 3.82643C36.8483 4.56799 36.8483 5.53874 36.8483 7.48026V9.73359C33.4978 9.73359 30.7816 12.4497 30.7816 15.8003C30.7816 19.1508 33.4978 21.8669 36.8483 21.8669V24.1203C36.8483 26.0618 36.8483 27.0325 36.4705 27.7741C36.1381 28.4264 35.6078 28.9567 34.9555 29.2891C34.2139 29.6669 33.2432 29.6669 31.3016 29.6669H7.72831C5.78679 29.6669 4.81603 29.6669 4.07447 29.2891C3.42218 28.9567 2.89185 28.4264 2.55948 27.7741C2.18164 27.0325 2.18164 26.0618 2.18164 24.1203V21.8669C5.53217 21.8669 8.24831 19.1508 8.24831 15.8003C8.24831 12.4497 5.53217 9.73359 2.18164 9.73359V7.48026C2.18164 5.53874 2.18164 4.56799 2.55948 3.82643C2.89185 3.17413 3.42218 2.6438 4.07447 2.31144C4.81603 1.93359 5.78679 1.93359 7.72831 1.93359Z" stroke="#777777" stroke-width="3" stroke-linecap="round" stroke-linejoin="round"/>
</svg>
