<svg width="39" height="40" viewBox="0 0 39 40" fill="none" xmlns="http://www.w3.org/2000/svg">
<path d="M35.3583 20.9733C35.0505 20.6143 34.8807 20.1528 34.8807 19.675C34.8807 19.1971 35.0505 18.7356 35.3583 18.3766L37.8159 15.5438C38.0867 15.2343 38.2548 14.8448 38.2962 14.4313C38.3376 14.0178 38.2501 13.6015 38.0463 13.2421L34.2063 6.43552C34.0045 6.07654 33.6972 5.79199 33.3283 5.62243C32.9594 5.45288 32.5477 5.40697 32.1519 5.49125L28.5423 6.23879C28.083 6.33603 27.6048 6.25766 27.198 6.01846C26.7913 5.77927 26.484 5.3958 26.3343 4.94042L25.1631 1.34039C25.0343 0.949659 24.7889 0.610284 24.4616 0.370236C24.1342 0.130189 23.7416 0.00161076 23.3391 0.00267535H15.6591C15.2404 -0.0197157 14.826 0.0989248 14.4794 0.340476C14.1327 0.582028 13.8727 0.933213 13.7391 1.34039L12.6639 4.94042C12.5141 5.3958 12.2069 5.77927 11.8001 6.01846C11.3933 6.25766 10.9152 6.33603 10.4559 6.23879L6.75027 5.49125C6.37501 5.43691 5.99244 5.49759 5.65078 5.66562C5.30911 5.83366 5.02362 6.10154 4.83027 6.43552L0.990269 13.2421C0.781297 13.5975 0.687336 14.0115 0.72182 14.4249C0.756304 14.8383 0.917468 15.2299 1.18227 15.5438L3.62067 18.3766C3.92848 18.7356 4.09824 19.1971 4.09824 19.675C4.09824 20.1528 3.92848 20.6143 3.62067 20.9733L1.18227 23.8062C0.917468 24.12 0.756304 24.5117 0.72182 24.9251C0.687336 25.3385 0.781297 25.7524 0.990269 26.1078L4.83027 32.9144C5.03206 33.2734 5.3393 33.558 5.70819 33.7275C6.07709 33.8971 6.48881 33.943 6.88467 33.8587L10.4943 33.1112C10.9536 33.0139 11.4317 33.0923 11.8385 33.3315C12.2453 33.5707 12.5525 33.9541 12.7023 34.4095L13.8735 38.0096C14.0071 38.4167 14.2671 38.7679 14.6138 39.0095C14.9604 39.251 15.3748 39.3697 15.7935 39.3473H23.4735C23.876 39.3483 24.2686 39.2198 24.596 38.9797C24.9233 38.7397 25.1687 38.4003 25.2975 38.0096L26.4687 34.4095C26.6184 33.9541 26.9257 33.5707 27.3324 33.3315C27.7392 33.0923 28.2174 33.0139 28.6767 33.1112L32.2863 33.8587C32.6821 33.943 33.0938 33.8971 33.4627 33.7275C33.8316 33.558 34.1389 33.2734 34.3407 32.9144L38.1807 26.1078C38.3845 25.7484 38.472 25.3321 38.4306 24.9186C38.3892 24.5051 38.2211 24.1157 37.9503 23.8062L35.3583 20.9733ZM32.4975 23.6094L34.0335 25.3799L31.5759 29.7472L29.3103 29.2751C27.9274 28.9854 26.489 29.2261 25.2679 29.9514C24.0468 30.6767 23.1281 31.8361 22.6863 33.2095L21.9567 35.4128H17.0415L16.3503 33.1702C15.9084 31.7967 14.9897 30.6373 13.7686 29.912C12.5476 29.1868 11.1091 28.9461 9.72627 29.2357L7.46067 29.7078L4.96467 25.3603L6.50067 23.5898C7.44522 22.5077 7.96742 21.107 7.96742 19.6553C7.96742 18.2036 7.44522 16.8029 6.50067 15.7208L4.96467 13.9503L7.42227 9.62243L9.68787 10.0946C11.0707 10.3842 12.5092 10.1435 13.7302 9.41823C14.9513 8.69295 15.87 7.53354 16.3119 6.1601L17.0415 3.93713H21.9567L22.6863 6.17978C23.1281 7.55322 24.0468 8.71262 25.2679 9.4379C26.489 10.1632 27.9274 10.4039 29.3103 10.1142L31.5759 9.6421L34.0335 14.0094L32.4975 15.7799C31.5635 16.8594 31.0478 18.252 31.0478 19.6946C31.0478 21.1373 31.5635 22.5299 32.4975 23.6094ZM19.4991 11.8061C17.9801 11.8061 16.4953 12.2676 15.2323 13.1322C13.9693 13.9969 12.985 15.2258 12.4037 16.6637C11.8224 18.1015 11.6703 19.6837 11.9666 21.2101C12.263 22.7365 12.9944 24.1387 14.0685 25.2391C15.1426 26.3396 16.511 27.0891 18.0008 27.3927C19.4905 27.6963 21.0347 27.5405 22.4381 26.9449C23.8414 26.3493 25.0409 25.3407 25.8848 24.0467C26.7286 22.7527 27.1791 21.2313 27.1791 19.675C27.1791 17.588 26.3699 15.5865 24.9296 14.1108C23.4894 12.6351 21.5359 11.8061 19.4991 11.8061ZM19.4991 23.6094C18.7396 23.6094 17.9972 23.3787 17.3657 22.9464C16.7342 22.514 16.242 21.8996 15.9514 21.1806C15.6607 20.4617 15.5847 19.6706 15.7329 18.9074C15.881 18.1442 16.2467 17.4431 16.7838 16.8929C17.3208 16.3426 18.005 15.9679 18.7499 15.8161C19.4948 15.6643 20.2669 15.7422 20.9686 16.04C21.6702 16.3378 22.27 16.8421 22.6919 17.4891C23.1139 18.1361 23.3391 18.8968 23.3391 19.675C23.3391 20.7185 22.9345 21.7192 22.2144 22.4571C21.4942 23.1949 20.5175 23.6094 19.4991 23.6094Z" fill="#777777"/>
</svg>
