<svg width="29" height="29" viewBox="0 0 29 29" fill="none" xmlns="http://www.w3.org/2000/svg">
<path d="M26.4285 13.9503C25.2864 15.0957 23.8301 15.8765 22.244 16.1938C20.6579 16.511 19.0133 16.3504 17.5185 15.7323L7.7805 27.4683C5.9985 29.2503 3.1185 29.2503 1.3365 27.4683C-0.4455 25.6863 -0.4455 22.8063 1.3365 21.0423L13.0725 11.2863C11.8485 8.31625 12.4425 4.78825 14.8545 2.37625C17.1585 0.0722539 20.4705 -0.539746 23.3505 0.468254L18.1485 5.67025L23.2245 10.7463L28.3725 5.58025C29.3265 8.42425 28.6965 11.6823 26.4285 13.9503ZM3.2625 25.5423C3.9825 26.2443 5.1345 26.2443 5.8365 25.5423C6.5565 24.8223 6.5565 23.6703 5.8365 22.9683C5.1345 22.2483 3.9825 22.2483 3.2625 22.9683C2.92501 23.3116 2.7359 23.7738 2.7359 24.2553C2.7359 24.7367 2.92501 25.1989 3.2625 25.5423Z" fill="#777777"/>
</svg>
